<svg width="13" height="25" viewBox="0 0 13 25" fill="none" xmlns="http://www.w3.org/2000/svg">
<path d="M11.1359 5.85248V18.4726C11.1359 20.8979 9.19072 22.8622 6.7891 22.8622C4.38747 22.8622 2.44226 20.8979 2.44226 18.4726V4.75507C2.44226 3.24066 3.65937 2.01156 5.15903 2.01156C6.65869 2.01156 7.8758 3.24066 7.8758 4.75507V16.2778C7.8758 16.8814 7.38679 17.3752 6.7891 17.3752C6.19141 17.3752 5.70239 16.8814 5.70239 16.2778V5.85248H4.07232V16.2778C4.07232 17.7922 5.28944 19.0213 6.7891 19.0213C8.28875 19.0213 9.50587 17.7922 9.50587 16.2778V4.75507C9.50587 2.32981 7.56066 0.365458 5.15903 0.365458C2.7574 0.365458 0.812195 2.32981 0.812195 4.75507V18.4726C0.812195 21.8087 3.4855 24.5083 6.7891 24.5083C10.0927 24.5083 12.766 21.8087 12.766 18.4726V5.85248H11.1359Z" fill="#5B7288"/>
</svg>
